<svg width="122" height="36" viewBox="0 0 122 36" fill="none" xmlns="http://www.w3.org/2000/svg">
<g clip-path="url(#clip0_1781_4858)">
<g clip-path="url(#clip1_1781_4858)">
<path d="M15.7378 35.9125C15.1571 35.8528 14.5791 35.7617 14.0079 35.6412C2.31564 33.2067 -3.1608 20.6553 1.8705 9.80464C1.95169 9.63026 2.03576 9.45588 2.12173 9.28444C4.86902 3.79443 11.0075 0.197131 16.9395 0.00805722C22.8076 -0.178078 28.6786 2.87355 32 7.83846C29.0435 9.99665 30.0112 9.31286 26.9525 11.4985C24.9283 9.01405 22.1657 7.02045 19.0382 6.56588C15.9117 6.11328 12.447 7.45639 10.8794 10.267C10.3722 11.1781 10.0742 12.196 9.60992 13.1306C9.14567 14.0652 8.45789 14.9567 7.48832 15.2946C7.07087 15.4386 6.28852 15.6218 6.23312 16.1763C6.1395 17.1041 8.08917 17.7085 7.05654 18.7097C6.97344 18.7901 6.87218 18.8577 6.8206 18.9625C6.70215 19.2084 6.92567 19.4935 6.89415 19.7658C6.87409 19.9421 6.75087 20.0861 6.70215 20.2566C6.55408 20.7699 6.9849 21.1706 6.76328 21.6967C6.57128 22.1562 6.20543 22.5676 6.23121 23.0957C6.24937 23.4885 6.50154 23.8412 6.81869 24.0606C7.13678 24.2801 7.51411 24.3878 7.88952 24.4682C8.3232 24.5612 8.76071 24.6239 9.20203 24.6563C9.94331 24.7092 12.6696 24.9276 12.1413 26.3471C12.0391 26.6244 11.7831 26.8154 11.6666 27.0868C11.4975 27.4816 11.6714 27.9616 11.978 28.2555C12.2846 28.5494 12.6973 28.6944 13.1033 28.808C16.781 29.8396 20.1864 29.1784 23.6721 27.5972C26.0402 31.1044 24.8576 29.342 27.2304 32.952C23.8861 35.2571 19.7461 36.325 15.7359 35.9135L15.7378 35.9125Z" fill="#3A0407"/>
<path d="M45.0654 18.2248C43.9683 18.2248 42.9839 18.0761 42.1128 17.7788C41.2416 17.4814 40.5004 17.0236 39.8841 16.4116C39.2734 15.7995 38.8096 15.0506 38.4929 14.1579C38.1762 13.2714 38.0176 12.2245 38.0176 11.0295C38.0176 9.83394 38.1817 8.73003 38.504 7.8033C38.8262 6.87657 39.296 6.09293 39.9068 5.45238C40.5176 4.81184 41.2416 4.33115 42.073 4.01087C42.9048 3.6906 43.8268 3.53074 44.8394 3.53074C45.6425 3.53074 46.3776 3.62799 47.0453 3.8281C47.7125 4.0282 48.295 4.32556 48.787 4.71458C49.2795 5.1036 49.6642 5.57815 49.9356 6.12144C50.2125 6.67088 50.354 7.2941 50.3656 7.99222L47.2205 8.86697C47.2205 8.28399 47.0962 7.80889 46.853 7.43719C46.6037 7.06549 46.2986 6.7849 45.9249 6.59654C45.5518 6.40762 45.1445 6.31036 44.7089 6.31036C44.3585 6.31036 43.9965 6.3847 43.6228 6.53338C43.2497 6.68206 42.9103 6.93358 42.5992 7.28292C42.288 7.6317 42.0448 8.08948 41.8585 8.66128C41.6772 9.23308 41.581 9.94237 41.581 10.7948C41.581 11.9043 41.7336 12.8025 42.0448 13.4833C42.356 14.1641 42.786 14.6671 43.3343 14.9874C43.8832 15.3077 44.4884 15.4681 45.15 15.4681C45.8796 15.4681 46.4456 15.3077 46.8469 14.9874C47.2487 14.6671 47.5317 14.2669 47.7014 13.7806C47.8711 13.2944 47.9612 12.8081 47.9783 12.305L50.931 12.774C50.9139 13.5403 50.8067 14.2608 50.5916 14.9304C50.3822 15.5994 50.0489 16.1774 49.5906 16.6693C49.1324 17.1611 48.5327 17.5384 47.786 17.8129C47.0392 18.0817 46.1344 18.2192 45.0654 18.2192V18.2248Z" fill="#3A0407"/>
<path d="M52.2659 17.9274V6.65354H55.0544L55.1169 10.4745H55.5408C55.637 9.479 55.8238 8.68418 56.1007 8.09506C56.3721 7.50593 56.7684 7.07108 57.283 6.80222C57.7976 6.53337 58.4311 6.39643 59.1949 6.39643C59.3082 6.39643 59.4326 6.39643 59.5741 6.40761C59.715 6.4132 59.8792 6.43053 60.0605 6.45903L59.9361 10.1313C59.7095 10.0167 59.4663 9.94237 59.206 9.90827C58.9462 9.87362 58.7196 9.85685 58.5217 9.85685C57.9734 9.85685 57.498 9.96528 57.0962 10.1771C56.6949 10.3884 56.3782 10.7204 56.1461 11.1609C55.9145 11.6013 55.7614 12.1563 55.6934 12.8254V17.9274H52.2659Z" fill="#3A0407"/>
<path d="M62.8656 5.07509C62.2156 5.07509 61.7231 4.93759 61.3782 4.65756C61.0333 4.38256 60.8636 3.98795 60.8636 3.47316C60.8636 2.92987 61.0333 2.52352 61.3782 2.24349C61.7231 1.96346 62.2211 1.82596 62.8656 1.82596C63.5106 1.82596 64.0313 1.96346 64.3762 2.24349C64.7211 2.52352 64.8908 2.92987 64.8908 3.47316C64.8908 3.98795 64.7211 4.38256 64.3762 4.65756C64.0313 4.93759 63.5277 5.07509 62.8656 5.07509ZM61.1521 17.9274V6.65355H64.5514V17.9274H61.1521Z" fill="#3A0407"/>
<path d="M66.6612 17.9274V6.65354H69.3425L69.3878 9.96528H69.8117C70.0096 9.15314 70.27 8.48408 70.5922 7.94638C70.915 7.41427 71.3107 7.01406 71.7745 6.7508C72.2382 6.48754 72.7816 6.35619 73.3979 6.35619C74.0147 6.35619 74.5857 6.49313 75.0102 6.77372C75.4396 7.04816 75.779 7.45451 76.0338 7.99221C76.2881 8.52377 76.4578 9.18164 76.5429 9.96528H76.8994C77.1255 9.12463 77.4195 8.43825 77.7871 7.90613C78.1547 7.37402 78.5902 6.97941 79.0937 6.73347C79.6028 6.48754 80.1517 6.36178 80.7398 6.36178C81.3732 6.36178 81.9276 6.48754 82.3969 6.73347C82.8667 6.98556 83.2624 7.35166 83.5792 7.84353C83.8959 8.3354 84.1335 8.94745 84.2861 9.67966C84.4392 10.4113 84.5182 11.2637 84.5182 12.2307V17.9274H81.0963V12.6538C81.0963 11.8987 81.0338 11.2754 80.915 10.7774C80.7962 10.28 80.6099 9.90827 80.3551 9.65674C80.1008 9.40466 79.778 9.28449 79.3823 9.28449C78.9296 9.28449 78.551 9.43317 78.2342 9.73108C77.9175 10.0284 77.6743 10.446 77.5046 10.9775C77.335 11.5096 77.2498 12.1105 77.2498 12.7796V17.9218H73.9124V12.7108C73.9124 11.9272 73.845 11.2866 73.7146 10.7892C73.5791 10.2911 73.3868 9.91386 73.1265 9.65674C72.8661 9.39907 72.5384 9.27331 72.142 9.27331C71.6899 9.27331 71.3107 9.42199 70.9996 9.71935C70.6884 10.0167 70.4568 10.4342 70.2926 10.9663C70.1285 11.4985 70.0494 12.0988 70.0494 12.7684V17.9101H66.6501L66.6612 17.9274Z" fill="#3A0407"/>
<path d="M91.0228 18.2248C90.2766 18.2248 89.6034 18.156 88.9981 18.0247C88.3929 17.8933 87.8667 17.6932 87.4146 17.4356C86.9619 17.1784 86.5943 16.8693 86.3058 16.5088C86.0173 16.1489 85.8133 15.7425 85.7061 15.3021L88.2404 14.1697C88.3365 14.41 88.5117 14.6559 88.7549 14.9075C88.9981 15.159 89.332 15.3591 89.7449 15.5139C90.1578 15.6682 90.6613 15.7481 91.2549 15.7481C91.8491 15.7481 92.2559 15.6682 92.5727 15.5022C92.8894 15.3362 93.048 15.102 93.048 14.7873C93.048 14.5587 92.9574 14.3809 92.7821 14.244C92.6069 14.1065 92.3411 13.9863 91.9901 13.8835C91.6397 13.775 91.2041 13.6716 90.6834 13.5744C90.1462 13.4604 89.6089 13.3284 89.0601 13.1798C88.5117 13.0311 87.9972 12.8254 87.5218 12.5621C87.0409 12.2989 86.6618 11.9501 86.3738 11.5152C86.0853 11.0809 85.9382 10.5315 85.9382 9.86244C85.9382 9.19338 86.119 8.55842 86.4865 8.03805C86.8541 7.51711 87.3974 7.11132 88.1215 6.80781C88.8456 6.50487 89.7278 6.36178 90.7685 6.36178C91.696 6.36178 92.5108 6.48195 93.2177 6.7223C93.9191 6.96264 94.5072 7.31142 94.9826 7.75746C95.4518 8.2035 95.7802 8.7412 95.9664 9.37057L93.2459 10.3543C93.1779 10.0396 93.0309 9.77077 92.8103 9.54216C92.5898 9.31356 92.3184 9.14196 91.9846 9.02179C91.6568 8.90162 91.2605 8.83845 90.8139 8.83845C90.265 8.83845 89.8411 8.92453 89.5354 9.09613C89.2297 9.26772 89.0827 9.49633 89.0827 9.77636C89.0827 10.0055 89.185 10.1945 89.3884 10.3431C89.5918 10.4918 89.8864 10.6176 90.265 10.7148C90.6442 10.8121 91.0963 10.9205 91.617 11.0351C92.1659 11.1497 92.7086 11.281 93.2514 11.4297C93.7947 11.5784 94.2867 11.7785 94.7278 12.0244C95.1694 12.276 95.5253 12.6024 95.7857 13.0082C96.046 13.4145 96.1759 13.9349 96.1759 14.5754C96.1759 15.3306 95.978 15.9829 95.5878 16.5317C95.1915 17.0812 94.615 17.4987 93.8456 17.7905C93.0762 18.0817 92.1371 18.2248 91.0289 18.2248H91.0228Z" fill="#3A0407"/>
<path d="M102.845 18.2248C101.719 18.2248 100.724 18.0018 99.8582 17.5613C98.9926 17.1209 98.3139 16.4574 97.8219 15.5765C97.33 14.6956 97.0807 13.5917 97.0807 12.2704C97.0807 10.949 97.33 9.84511 97.8219 8.97036C98.3139 8.09506 98.9987 7.44277 99.8698 7.00847C100.74 6.57361 101.742 6.35619 102.867 6.35619C103.993 6.35619 104.994 6.5792 105.865 7.01965C106.736 7.4601 107.421 8.11797 107.913 8.99328C108.405 9.86802 108.654 10.9663 108.654 12.2933C108.654 13.6202 108.4 14.7644 107.896 15.6453C107.387 16.5262 106.697 17.1784 105.814 17.6016C104.932 18.0247 103.948 18.2304 102.851 18.2304L102.845 18.2248ZM102.947 15.7252C103.456 15.7252 103.874 15.605 104.214 15.3708C104.553 15.1361 104.802 14.7755 104.972 14.2954C105.141 13.8147 105.226 13.2144 105.226 12.5051C105.226 11.75 105.136 11.115 104.949 10.5947C104.762 10.0743 104.496 9.67966 104.135 9.39907C103.773 9.11904 103.314 8.98154 102.755 8.98154C102.274 8.98154 101.866 9.10171 101.521 9.33647C101.176 9.57067 100.922 9.93119 100.752 10.4113C100.582 10.8976 100.497 11.4985 100.497 12.2245C100.497 13.3916 100.712 14.2669 101.142 14.8504C101.572 15.4334 102.172 15.7252 102.947 15.7252Z" fill="#3A0407"/>
<path d="M110.108 17.9274V6.65354H112.851L112.891 9.96528H113.314C113.496 9.17046 113.756 8.50085 114.095 7.95756C114.435 7.41427 114.864 7.01406 115.385 6.7508C115.905 6.48754 116.516 6.35619 117.223 6.35619C118.53 6.35619 119.525 6.81955 120.21 7.74628C120.894 8.67245 121.233 10.1425 121.233 12.1675V17.933H117.817V12.5565C117.817 11.3895 117.653 10.5376 117.32 10.0055C116.991 9.47341 116.499 9.20456 115.854 9.20456C115.317 9.20456 114.881 9.37057 114.537 9.69643C114.192 10.0229 113.937 10.4572 113.767 11.0004C113.597 11.5443 113.513 12.1446 113.513 12.8137V17.9392H110.113L110.108 17.9274Z" fill="#3A0407"/>
<path d="M39.0481 34.7483V22.3766H41.066V34.7483H39.0481ZM40.2343 24.0796V22.3766H47.8877V24.0796H40.2343ZM40.2343 29.2535V27.6573H47.0348V29.2535H40.2343ZM40.2343 34.7483V33.0453H47.9244V34.7483H40.2343Z" fill="#3A0407"/>
<path d="M52.7656 34.9895C51.9391 34.9895 51.2347 34.7755 50.6524 34.3521C50.0697 33.9292 49.6246 33.3294 49.3068 32.5632C48.9942 31.7923 48.8354 30.8979 48.8354 29.8747C48.8354 28.8516 48.9839 28.0268 49.2804 27.2611C49.577 26.4897 50.0112 25.8846 50.5888 25.4403C51.1607 24.9955 51.8651 24.7762 52.6911 24.7762C53.3587 24.7762 53.9094 24.9154 54.3436 25.1886C54.7778 25.4618 55.1276 25.8313 55.3921 26.2866C55.6571 26.7414 55.8584 27.2559 55.9961 27.8342H56.3666C56.3035 27.4594 56.245 27.0737 56.1922 26.6718C56.1389 26.2704 56.0861 25.8899 56.0437 25.5314C56.0013 25.1724 55.98 24.8458 55.98 24.5564V21.5413H58.0192L58.0036 29.9548V34.754H56.2611L56.3351 32.0545H56.0013C55.8532 32.6653 55.6411 33.1897 55.3714 33.6293C55.1013 34.0684 54.7514 34.4055 54.3224 34.6415C53.899 34.877 53.3799 35 52.7759 35L52.7656 34.9895ZM53.3002 33.2651C53.7453 33.2651 54.1371 33.163 54.4761 32.9542C54.8151 32.7506 55.0956 32.4832 55.3129 32.1671C55.5303 31.851 55.6944 31.4977 55.8108 31.1172C55.9273 30.7372 55.9857 30.3782 55.9857 30.0407V29.7785C55.9857 29.5267 55.9536 29.2588 55.8848 28.9641C55.816 28.6694 55.7156 28.3806 55.5779 28.0911C55.4402 27.8022 55.2653 27.5343 55.0479 27.2878C54.8311 27.0413 54.5765 26.8434 54.2856 26.699C53.9942 26.554 53.6713 26.4844 53.3111 26.4844C52.792 26.4844 52.3521 26.6346 51.9924 26.9345C51.6322 27.2344 51.3672 27.6358 51.1871 28.145C51.007 28.6537 50.9169 29.2425 50.9169 29.9177C50.9169 30.5923 51.0121 31.1816 51.1979 31.6903C51.3832 32.199 51.6534 32.5847 52.0136 32.8631C52.3733 33.1363 52.7971 33.2755 53.295 33.2755L53.3002 33.2651Z" fill="#3A0407"/>
<path d="M63.4585 34.9896C62.3727 34.9896 61.5467 34.6091 60.9852 33.8486C60.4236 33.0882 60.1431 31.942 60.1431 30.4159V24.9955H62.161V30.2066C62.161 31.2297 62.3199 31.9954 62.6325 32.5047C62.9446 33.0134 63.4321 33.2651 64.0889 33.2651C64.4594 33.2651 64.7932 33.1688 65.0898 32.9809C65.3863 32.7935 65.6405 32.5313 65.8578 32.1938C66.0747 31.8562 66.2496 31.4548 66.3769 30.9942C66.5037 30.5337 66.5886 30.025 66.6259 29.4786V24.9955H68.6277V34.7431H66.9224L67.0337 31.6474H66.6999C66.541 32.4078 66.3133 33.04 66.0219 33.5435C65.7305 34.0418 65.3703 34.4113 64.947 34.6415C64.5231 34.8718 64.0252 34.9896 63.4533 34.9896H63.4585Z" fill="#3A0407"/>
<path d="M75.1737 34.9896C74.3316 34.9896 73.6169 34.8608 73.0238 34.6038C72.4302 34.3469 71.9432 33.9879 71.5669 33.5273C71.1912 33.0667 70.905 32.5313 70.7145 31.9258C70.5235 31.3208 70.4283 30.6729 70.4283 29.9873C70.4283 29.2373 70.5292 28.5517 70.7249 27.9252C70.921 27.2988 71.2176 26.7472 71.6042 26.2651C71.996 25.7831 72.4778 25.4136 73.0605 25.1509C73.6433 24.8887 74.3156 24.7547 75.0785 24.7547C75.8413 24.7547 76.4769 24.883 77.0436 25.1404C77.6103 25.3974 78.0761 25.7617 78.4311 26.2275C78.7861 26.6933 79.0242 27.2449 79.1355 27.8661L77.2449 28.4449C77.2076 28.0697 77.1015 27.7269 76.9323 27.4218C76.7574 27.1167 76.5136 26.8702 76.1907 26.6828C75.8677 26.4954 75.4759 26.3986 75.0044 26.3986C74.5858 26.3986 74.2152 26.4844 73.9026 26.6613C73.5905 26.8382 73.3204 27.079 73.1082 27.3951C72.8965 27.7112 72.7267 28.0807 72.616 28.5088C72.5047 28.9427 72.4514 29.4142 72.4514 29.9229C72.4514 30.6352 72.5523 31.246 72.748 31.7599C72.9441 32.2744 73.2515 32.6706 73.6537 32.9595C74.0615 33.2489 74.5754 33.3933 75.1949 33.3933C75.7036 33.3933 76.127 33.297 76.466 33.1044C76.805 32.9113 77.07 32.6543 77.2604 32.3382C77.4514 32.0169 77.573 31.6526 77.6206 31.2407L79.4217 31.6526C79.3472 32.1776 79.1991 32.6491 78.9766 33.0563C78.754 33.4687 78.4627 33.8167 78.1082 34.1056C77.7479 34.395 77.3241 34.6148 76.8371 34.7645C76.3495 34.9147 75.7937 34.9896 75.1794 34.9896H75.1737Z" fill="#3A0407"/>
<path d="M83.1816 34.9896C82.6361 34.9896 82.1594 34.8823 81.7464 34.6735C81.3334 34.4594 80.9996 34.1538 80.7558 33.7471C80.5069 33.3399 80.3853 32.8365 80.3853 32.2367C80.3853 31.7385 80.4753 31.3103 80.6554 30.9513C80.8355 30.5923 81.1109 30.2976 81.4814 30.0621C81.8525 29.8266 82.3183 29.623 82.8798 29.4624C83.4414 29.3017 84.1137 29.1677 84.8926 29.0662C85.3371 28.9908 85.6974 28.927 85.9675 28.8678C86.2377 28.8144 86.439 28.7124 86.5715 28.5679C86.7035 28.4235 86.7671 28.2147 86.7671 27.9415C86.7671 27.5181 86.6191 27.1486 86.3225 26.8435C86.026 26.5383 85.5545 26.3829 84.9138 26.3829C84.5536 26.3829 84.2037 26.4473 83.8647 26.5703C83.5257 26.6933 83.224 26.8968 82.9647 27.181C82.7049 27.4595 82.5305 27.8394 82.4456 28.3162L80.629 27.7164C80.7507 27.2559 80.936 26.8435 81.1745 26.4792C81.4126 26.1149 81.72 25.8046 82.0802 25.5419C82.4456 25.2797 82.8747 25.0813 83.3669 24.9526C83.8596 24.8191 84.3947 24.7547 84.9614 24.7547C85.8138 24.7547 86.5239 24.8939 87.0849 25.1776C87.6464 25.456 88.0646 25.8957 88.3348 26.4897C88.6049 27.0842 88.7426 27.8452 88.7426 28.7663V30.753C88.7534 31.1654 88.7695 31.6045 88.7798 32.065C88.7902 32.5261 88.8171 32.9809 88.8538 33.431C88.8911 33.8811 88.9336 34.3202 88.9863 34.7431H87.1537C87.117 34.3683 87.0849 33.9774 87.0533 33.5702C87.0212 33.163 86.9948 32.7616 86.9684 32.3597H86.7091C86.5239 32.8202 86.2749 33.2541 85.9572 33.6613C85.6446 34.0685 85.258 34.3898 84.7968 34.6253C84.3362 34.8608 83.8016 34.9843 83.1867 34.9843L83.1816 34.9896ZM83.8859 33.4362C84.1349 33.4362 84.3947 33.3881 84.6649 33.297C84.935 33.206 85.1995 33.0667 85.4593 32.8846C85.7186 32.7025 85.9675 32.467 86.2004 32.1723C86.4338 31.8777 86.6346 31.5406 86.7935 31.1497V29.3875L87.2598 29.4786C87.0637 29.6659 86.8044 29.8052 86.4814 29.9015C86.158 29.9978 85.8138 30.0731 85.4432 30.137C85.0727 30.2013 84.7068 30.2605 84.3414 30.3249C83.976 30.3887 83.6427 30.4798 83.3405 30.5975C83.0387 30.7158 82.795 30.8869 82.6149 31.1068C82.4348 31.326 82.3447 31.6207 82.3447 31.9954C82.3447 32.456 82.4881 32.815 82.7686 33.0615C83.0548 33.3132 83.4253 33.4362 83.8808 33.4362H83.8859Z" fill="#3A0407"/>
<path d="M94.1768 34.9519C93.2235 34.9519 92.5191 34.6949 92.0637 34.1752C91.6083 33.656 91.3805 32.8474 91.3805 31.7494V26.6666H89.9506L89.9713 24.9955H90.8982C91.2216 24.9955 91.4597 24.9421 91.6134 24.8348C91.7671 24.728 91.8675 24.5297 91.9203 24.246L92.1061 22.8214H93.3084V24.9955H95.9561V26.7042H93.3084V31.6903C93.3084 32.1671 93.4191 32.5099 93.6417 32.7292C93.8642 32.949 94.1872 33.0563 94.6059 33.0563C94.8548 33.0563 95.0929 33.0238 95.3315 32.9652C95.5644 32.9008 95.7973 32.7883 96.0146 32.6276V34.6148C95.6544 34.7378 95.3206 34.8289 95.0028 34.877C94.6851 34.9252 94.4097 34.9519 94.1768 34.9519Z" fill="#3A0407"/>
<path d="M98.5672 23.3887C98.1329 23.3887 97.8048 23.2977 97.5823 23.1051C97.3597 22.9177 97.2485 22.655 97.2485 22.3179C97.2485 21.9804 97.3597 21.6967 97.5823 21.5146C97.8048 21.3324 98.1329 21.2304 98.5672 21.2304C99.0014 21.2304 99.33 21.3215 99.5577 21.5036C99.7855 21.6857 99.9019 21.9589 99.9019 22.3179C99.9019 22.6764 99.7855 22.9334 99.5577 23.1155C99.33 23.2977 98.9962 23.3887 98.5672 23.3887ZM97.545 34.7483V25.0012H99.5681V34.7483H97.545Z" fill="#3A0407"/>
<path d="M106.109 34.9896C105.182 34.9896 104.362 34.7912 103.641 34.3898C102.921 33.9879 102.37 33.4095 101.973 32.6491C101.576 31.8887 101.379 30.9565 101.379 29.8585C101.379 28.7605 101.586 27.7808 101.999 27.0256C102.412 26.2756 102.974 25.7078 103.689 25.3278C104.398 24.9473 105.198 24.7547 106.088 24.7547C106.978 24.7547 107.82 24.9526 108.535 25.344C109.25 25.7402 109.816 26.3133 110.229 27.079C110.643 27.8394 110.849 28.7877 110.849 29.9124C110.849 31.0371 110.637 31.9954 110.219 32.7454C109.8 33.4954 109.229 34.0575 108.514 34.4327C107.799 34.8074 106.994 34.9948 106.104 34.9948L106.109 34.9896ZM106.183 33.3991C106.75 33.3991 107.232 33.2651 107.618 32.9971C108.005 32.7292 108.307 32.3382 108.519 31.8243C108.731 31.3103 108.832 30.7048 108.832 30.0035C108.832 29.2535 108.72 28.6108 108.498 28.0755C108.275 27.5395 107.963 27.1271 107.55 26.8382C107.142 26.5488 106.634 26.4044 106.03 26.4044C105.5 26.4044 105.034 26.5383 104.632 26.8005C104.229 27.0627 103.922 27.4485 103.715 27.9519C103.503 28.4606 103.397 29.0819 103.397 29.8156C103.397 30.9403 103.646 31.819 104.139 32.4507C104.632 33.083 105.315 33.3991 106.178 33.3991H106.183Z" fill="#3A0407"/>
<mask id="mask0_1781_4858" style="mask-type:luminance" maskUnits="userSpaceOnUse" x="112" y="24" width="10" height="11">
<path d="M112.54 24.7359H121.233V34.7844H112.54V24.7359Z" fill="white"/>
</mask>
<g mask="url(#mask0_1781_4858)">
<path d="M112.618 34.7482V25.0012H114.382L114.27 28.0163H114.567C114.742 27.2773 114.975 26.6718 115.272 26.1897C115.568 25.7077 115.939 25.3492 116.394 25.1132C116.845 24.8777 117.374 24.7547 117.978 24.7547C119.053 24.7547 119.874 25.1456 120.435 25.9275C120.997 26.7094 121.277 27.8933 121.277 29.4785V34.743H119.254V29.6607C119.254 28.5841 119.09 27.7912 118.762 27.272C118.434 26.7524 117.952 26.4954 117.305 26.4954C116.739 26.4954 116.262 26.6775 115.875 27.0418C115.489 27.4055 115.197 27.8718 114.986 28.4449C114.774 29.018 114.658 29.6444 114.631 30.3191V34.743H112.608L112.618 34.7482Z" fill="#3A0407"/>
</g>
</g>
</g>
<defs>
<clipPath id="clip0_1781_4858">
<rect width="121.233" height="36" fill="white"/>
</clipPath>
<clipPath id="clip1_1781_4858">
<rect width="121.233" height="36" fill="white"/>
</clipPath>
</defs>
</svg>
